<?xml version="1.0" standalone="no"?>
<!DOCTYPE svg PUBLIC "-//W3C//DTD SVG 20010904//EN"
 "http://www.w3.org/TR/2001/REC-SVG-20010904/DTD/svg10.dtd">
<svg version="1.0" xmlns="http://www.w3.org/2000/svg"
 width="790.000000pt" height="790.000000pt" viewBox="0 0 790.000000 790.000000"
 preserveAspectRatio="xMidYMid meet">
<metadata>
Created by potrace 1.11, written by Peter Selinger 2001-2013
</metadata>
<g transform="translate(0.000000,790.000000) scale(0.100000,-0.100000)"
fill="#000000" stroke="none">
<path d="M2734 7833 c-78 -88 -153 -197 -233 -338 -87 -156 -141 -355 -141
-524 0 -108 35 -255 80 -338 38 -68 38 -63 -50 -303 -97 -259 -169 -420 -236
-522 -65 -97 -76 -125 -49 -114 8 3 22 9 30 12 12 5 15 -5 15 -59 0 -52 3 -66
16 -69 14 -2 8 -19 -30 -91 -25 -49 -46 -93 -46 -99 0 -6 26 -8 66 -6 l66 3
-7 -62 -7 -63 31 0 c16 0 33 -5 37 -11 5 -9 -11 -10 -62 -6 -408 37 -701 31
-1044 -22 -169 -26 -609 -127 -641 -147 -14 -8 -10 -40 6 -54 13 -11 29 -9 88
8 214 62 576 123 835 142 237 17 504 10 749 -21 90 -11 92 -12 98 -40 6 -25
11 -29 40 -29 39 0 49 -9 106 -90 23 -33 44 -60 46 -60 3 0 26 12 52 26 l46
25 70 -68 71 -68 -256 4 c-385 5 -703 -20 -1070 -86 -146 -26 -489 -107 -519
-122 -9 -5 -52 -18 -96 -29 -79 -20 -444 -155 -580 -215 -199 -88 -241 -120
-194 -150 13 -8 52 5 175 61 88 39 222 94 299 122 77 28 156 58 175 65 152 60
704 184 955 214 376 44 819 57 1129 31 125 -10 156 -16 186 -35 20 -12 70 -40
111 -61 73 -38 73 -39 39 -41 -473 -34 -928 -223 -1227 -509 -111 -107 -145
-152 -133 -175 18 -33 47 -21 102 42 103 117 328 278 513 365 259 123 602 191
920 182 88 -3 168 -9 178 -13 14 -6 18 -15 13 -36 -17 -85 -84 -547 -131 -904
-19 -148 -44 -335 -55 -415 -10 -80 -24 -192 -30 -250 -7 -58 -20 -170 -30
-250 -10 -80 -23 -190 -29 -245 -6 -55 -20 -181 -31 -280 -11 -99 -25 -223
-30 -275 -6 -52 -17 -149 -25 -215 -8 -66 -24 -214 -35 -330 -11 -115 -27
-266 -35 -335 -23 -189 -62 -549 -85 -790 -6 -58 -13 -120 -15 -137 l-4 -33
1009 0 c803 0 1009 3 1005 13 -2 6 -9 76 -15 155 -6 78 -13 152 -15 163 -2 11
-7 50 -10 87 -3 37 -12 119 -20 182 -8 63 -19 169 -25 235 -5 66 -24 239 -40
385 -78 680 -103 903 -125 1115 -9 77 -17 156 -20 175 -6 42 -51 419 -65 545
-6 50 -15 117 -20 150 -5 33 -12 85 -15 115 -18 163 -149 1088 -161 1135 -9
38 66 50 296 49 484 -4 846 -118 1200 -379 70 -51 63 -45 164 -145 73 -71 89
-83 104 -74 35 23 25 45 -55 126 -177 180 -403 334 -618 421 -157 63 -426 129
-585 142 -41 4 -81 9 -89 11 -8 3 33 31 90 63 119 66 121 66 444 81 214 10
577 -2 788 -25 582 -64 1080 -196 1576 -416 85 -38 160 -69 168 -69 8 0 13 12
13 33 0 32 -1 33 -160 105 -355 162 -620 251 -1000 336 -445 99 -854 141
-1306 133 l-261 -4 61 55 c34 31 65 62 69 69 11 18 22 16 67 -12 22 -14 43
-25 47 -25 5 1 32 34 62 75 48 67 57 75 86 75 27 0 35 5 43 28 9 27 15 29 93
40 236 33 580 40 814 17 325 -32 429 -50 707 -121 145 -38 178 -36 178 7 0 25
-4 26 -250 87 -218 54 -475 97 -680 114 -124 10 -658 5 -774 -8 -41 -4 -56 -3
-52 5 4 6 21 11 37 11 30 0 31 0 24 43 -3 23 -9 50 -11 60 -5 14 2 17 38 18
24 1 49 1 57 0 42 -6 42 8 -4 99 -25 49 -45 92 -45 95 0 3 7 5 15 5 12 0 15
14 15 66 0 55 3 65 15 60 8 -3 22 -9 30 -12 24 -10 18 10 -19 62 -100 142
-173 300 -292 634 -24 69 -46 133 -49 144 -2 10 -7 21 -9 24 -3 2 8 30 23 61
101 201 115 429 40 656 -70 209 -194 417 -338 570 l-54 57 -21 -27 c-21 -28
-108 -150 -455 -636 -96 -134 -175 -246 -177 -248 -2 -3 -24 5 -48 18 -88 43
-181 55 -451 55 -269 1 -384 -13 -468 -56 l-40 -20 -26 33 c-14 19 -82 113
-151 209 -198 279 -438 612 -462 643 l-23 28 -61 -68z m429 -1674 l56 -21 -48
-24 c-54 -27 -135 -109 -168 -170 -28 -51 -53 -153 -53 -220 0 -86 45 -210 97
-266 24 -25 24 -26 4 -21 -11 3 -21 10 -21 15 0 5 -4 7 -9 4 -12 -8 -178 104
-223 151 -39 40 -100 148 -112 197 -12 51 -8 154 9 213 13 46 14 61 4 79 -17
32 -2 46 68 67 80 23 112 26 234 21 77 -2 121 -9 162 -25z m1996 1 c69 -25 75
-31 60 -63 -9 -20 -8 -40 6 -97 32 -132 -4 -280 -90 -368 -19 -20 -35 -40 -35
-44 0 -13 -123 -95 -200 -133 l-75 -37 36 38 c71 76 102 157 102 272 1 102
-15 157 -74 248 -42 64 -87 106 -152 140 l-40 21 46 18 c78 29 108 33 237 29
93 -3 139 -9 179 -24z m-508 -82 c-73 -214 -60 -395 45 -624 29 -65 25 -76
-36 -95 -31 -9 -96 -25 -145 -35 -55 -11 -97 -25 -108 -37 -11 -11 -29 -17
-45 -15 -25 3 -27 6 -28 58 -1 30 -9 74 -18 98 -26 71 -32 192 -12 259 50 170
144 297 291 396 39 26 71 47 72 47 1 0 -6 -24 -16 -52z m-1329 8 c123 -84 229
-217 275 -351 35 -98 35 -212 1 -314 -19 -54 -23 -82 -18 -107 4 -18 5 -35 2
-38 -12 -12 -51 -5 -75 14 -14 11 -31 20 -37 20 -16 0 -260 59 -271 65 -4 3 3
29 15 58 13 28 40 104 61 167 37 114 37 116 32 240 -3 69 -10 139 -15 155 -32
98 -39 125 -31 125 6 0 33 -15 61 -34z m828 -1257 c-51 -37 -147 -132 -174
-173 l-18 -28 -27 41 c-34 51 -134 146 -181 171 l-35 19 239 1 239 0 -43 -31z"/>
</g>
</svg>
